#N canvas 2040 146 450 300 10;
#X obj 14 69 rpi_sensor;
#X obj 14 101 unpack f f f f f f f f f f f f f f f f f f f f f f f
f f f f f f f f f;
#X obj 14 42 metro 10;
#X obj 14 18 tgl 15 0 empty empty empty 17 7 0 10 -262144 -1 -1 0 1
;
#X floatatom 14 141 5 0 0 0 - - -;
#X floatatom 25 159 5 0 0 0 - - -;
#X floatatom 36 177 5 0 0 0 - - -;
#X floatatom 47 195 5 0 0 0 - - -;
#X floatatom 58 140 5 0 0 0 - - -;
#X floatatom 69 158 5 0 0 0 - - -;
#X floatatom 80 176 5 0 0 0 - - -;
#X floatatom 91 194 5 0 0 0 - - -;
#X floatatom 103 140 5 0 0 0 - - -;
#X floatatom 114 158 5 0 0 0 - - -;
#X floatatom 125 176 5 0 0 0 - - -;
#X floatatom 136 194 5 0 0 0 - - -;
#X floatatom 147 141 5 0 0 0 - - -;
#X floatatom 158 159 5 0 0 0 - - -;
#X floatatom 169 177 5 0 0 0 - - -;
#X floatatom 180 195 5 0 0 0 - - -;
#X floatatom 192 141 5 0 0 0 - - -;
#X floatatom 203 159 5 0 0 0 - - -;
#X floatatom 214 177 5 0 0 0 - - -;
#X floatatom 225 195 5 0 0 0 - - -;
#X floatatom 236 140 5 0 0 0 - - -;
#X floatatom 247 158 5 0 0 0 - - -;
#X floatatom 258 176 5 0 0 0 - - -;
#X floatatom 269 194 5 0 0 0 - - -;
#X floatatom 281 141 5 0 0 0 - - -;
#X floatatom 292 159 5 0 0 0 - - -;
#X floatatom 303 177 5 0 0 0 - - -;
#X floatatom 314 195 5 0 0 0 - - -;
#X floatatom 325 141 5 0 0 0 - - -;
#X floatatom 336 159 5 0 0 0 - - -;
#X floatatom 347 177 5 0 0 0 - - -;
#X floatatom 359 195 5 0 0 0 - - -;
#X text 39 17 On/Off;
#X text 71 34 Be careful going too fast here. Too quick of a refresh
rate may be too fast for SPI to communicate with the ADC;
#X text 82 68 Bang to get 32 values out - sensors 1-32;
#X text 15 216 12-bit output (0-4095);
#X connect 0 0 1 0;
#X connect 1 0 4 0;
#X connect 1 1 5 0;
#X connect 1 2 6 0;
#X connect 1 3 7 0;
#X connect 1 4 8 0;
#X connect 1 5 9 0;
#X connect 1 6 10 0;
#X connect 1 7 11 0;
#X connect 1 8 12 0;
#X connect 1 9 13 0;
#X connect 1 10 14 0;
#X connect 1 11 15 0;
#X connect 1 12 16 0;
#X connect 1 13 17 0;
#X connect 1 14 18 0;
#X connect 1 15 19 0;
#X connect 1 16 20 0;
#X connect 1 17 21 0;
#X connect 1 18 22 0;
#X connect 1 19 23 0;
#X connect 1 20 24 0;
#X connect 1 21 25 0;
#X connect 1 22 26 0;
#X connect 1 23 27 0;
#X connect 1 24 28 0;
#X connect 1 25 29 0;
#X connect 1 26 30 0;
#X connect 1 27 31 0;
#X connect 1 28 32 0;
#X connect 1 29 33 0;
#X connect 1 30 34 0;
#X connect 1 31 35 0;
#X connect 2 0 0 0;
#X connect 3 0 2 0;
